
<svg xmlns="http://www.w3.org/2000/svg" viewBox="0 0 512 512" width="512" height="512">
  <defs>
    <linearGradient id="grad1" x1="0%" y1="0%" x2="100%" y2="100%">
      <stop offset="0%" style="stop-color:#2563eb;stop-opacity:1" />
      <stop offset="100%" style="stop-color:#1d4ed8;stop-opacity:1" />
    </linearGradient>
  </defs>
  
  <!-- Background circle -->
  <circle cx="256" cy="256" r="240" fill="url(#grad1)" stroke="#1e40af" stroke-width="8"/>
  
  <!-- Calculator icon -->
  <rect x="180" y="140" width="152" height="200" rx="12" fill="white" stroke="#e5e7eb" stroke-width="2"/>
  
  <!-- Screen -->
  <rect x="200" y="160" width="112" height="40" rx="4" fill="#f3f4f6"/>
  <text x="256" y="185" text-anchor="middle" fill="#374151" font-family="monospace" font-size="18" font-weight="bold">₹123</text>
  
  <!-- Buttons -->
  <circle cx="215" cy="230" r="12" fill="#e5e7eb"/>
  <circle cx="245" cy="230" r="12" fill="#e5e7eb"/>
  <circle cx="275" cy="230" r="12" fill="#e5e7eb"/>
  <circle cx="305" cy="230" r="12" fill="#fbbf24"/>
  
  <circle cx="215" cy="260" r="12" fill="#e5e7eb"/>
  <circle cx="245" cy="260" r="12" fill="#e5e7eb"/>
  <circle cx="275" cy="260" r="12" fill="#e5e7eb"/>
  <circle cx="305" cy="260" r="12" fill="#fbbf24"/>
  
  <circle cx="215" cy="290" r="12" fill="#e5e7eb"/>
  <circle cx="245" cy="290" r="12" fill="#e5e7eb"/>
  <circle cx="275" cy="290" r="12" fill="#e5e7eb"/>
  <circle cx="305" cy="290" r="12" fill="#10b981"/>
  
  <!-- Rupee symbol -->
  <text x="380" y="180" fill="white" font-family="Arial, sans-serif" font-size="48" font-weight="bold">₹</text>
  
  <!-- Chart element -->
  <path d="M 120 400 L 140 380 L 160 360 L 180 340 L 200 320" stroke="white" stroke-width="4" fill="none" stroke-linecap="round"/>
  <circle cx="120" cy="400" r="4" fill="white"/>
  <circle cx="140" cy="380" r="4" fill="white"/>
  <circle cx="160" cy="360" r="4" fill="white"/>
  <circle cx="180" cy="340" r="4" fill="white"/>
  <circle cx="200" cy="320" r="4" fill="white"/>
</svg>
